<svg xmlns="http://www.w3.org/2000/svg" xmlns:xlink="http://www.w3.org/1999/xlink" width="500" zoomAndPan="magnify" viewBox="0 0 375 374.999991" height="500" preserveAspectRatio="xMidYMid meet" version="1.0"><defs><g/><clipPath id="9c6ff81fb1"><path d="M 1 58.296875 L 374 58.296875 L 374 317 L 1 317 Z M 1 58.296875 " clip-rule="nonzero"/></clipPath><clipPath id="b1b1d6ce6a"><path d="M 25.730469 316.984375 L 349.46875 316.984375 C 350.875 316.984375 352.273438 316.859375 353.65625 316.605469 C 355.042969 316.355469 356.394531 315.984375 357.714844 315.492188 C 359.03125 315 360.296875 314.394531 361.507812 313.675781 C 362.71875 312.957031 363.859375 312.136719 364.925781 311.21875 C 365.988281 310.296875 366.964844 309.285156 367.851562 308.191406 C 368.738281 307.097656 369.519531 305.929688 370.195312 304.695312 C 370.875 303.460938 371.4375 302.175781 371.886719 300.839844 C 372.335938 299.503906 372.664062 298.136719 372.871094 296.742188 C 373.078125 295.347656 373.160156 293.949219 373.117188 292.539062 C 373.074219 291.128906 372.90625 289.734375 372.613281 288.355469 C 372.324219 286.976562 371.914062 285.636719 371.382812 284.328125 C 370.851562 283.023438 370.210938 281.773438 369.457031 280.582031 C 368.707031 279.390625 367.851562 278.277344 366.902344 277.238281 C 365.949219 276.199219 364.914062 275.253906 363.796875 274.398438 C 362.675781 273.542969 361.488281 272.796875 360.238281 272.152344 C 358.984375 271.511719 357.683594 270.984375 356.335938 270.574219 L 356.335938 85.96875 C 356.335938 85.0625 356.292969 84.160156 356.203125 83.257812 C 356.117188 82.355469 355.984375 81.460938 355.804688 80.570312 C 355.628906 79.679688 355.410156 78.804688 355.148438 77.9375 C 354.882812 77.070312 354.582031 76.214844 354.234375 75.378906 C 353.886719 74.542969 353.5 73.722656 353.074219 72.925781 C 352.648438 72.125 352.183594 71.347656 351.679688 70.59375 C 351.175781 69.839844 350.636719 69.113281 350.0625 68.414062 C 349.488281 67.710938 348.882812 67.042969 348.242188 66.402344 C 347.601562 65.761719 346.933594 65.152344 346.234375 64.578125 C 345.535156 64.003906 344.808594 63.460938 344.054688 62.960938 C 343.300781 62.457031 342.527344 61.992188 341.730469 61.5625 C 340.929688 61.136719 340.113281 60.75 339.277344 60.402344 C 338.441406 60.054688 337.589844 59.75 336.722656 59.488281 C 335.855469 59.222656 334.980469 59.003906 334.09375 58.828125 C 333.203125 58.648438 332.3125 58.515625 331.410156 58.429688 C 330.507812 58.339844 329.605469 58.296875 328.703125 58.296875 L 46.417969 58.296875 C 45.511719 58.296875 44.609375 58.339844 43.707031 58.429688 C 42.808594 58.515625 41.914062 58.648438 41.027344 58.828125 C 40.136719 59.003906 39.261719 59.222656 38.394531 59.488281 C 37.527344 59.75 36.675781 60.054688 35.839844 60.402344 C 35.003906 60.75 34.1875 61.136719 33.390625 61.5625 C 32.589844 61.992188 31.816406 62.457031 31.0625 62.960938 C 30.3125 63.460938 29.585938 64.003906 28.886719 64.578125 C 28.183594 65.152344 27.515625 65.761719 26.875 66.402344 C 26.234375 67.042969 25.628906 67.710938 25.054688 68.414062 C 24.480469 69.113281 23.941406 69.839844 23.4375 70.59375 C 22.9375 71.347656 22.472656 72.125 22.042969 72.925781 C 21.617188 73.722656 21.230469 74.542969 20.882812 75.378906 C 20.539062 76.214844 20.234375 77.070312 19.972656 77.9375 C 19.707031 78.804688 19.488281 79.679688 19.3125 80.570312 C 19.136719 81.460938 19.003906 82.355469 18.914062 83.257812 C 18.824219 84.160156 18.78125 85.0625 18.78125 85.96875 L 18.78125 270.574219 C 17.433594 270.984375 16.132812 271.511719 14.878906 272.15625 C 13.621094 272.796875 12.433594 273.546875 11.316406 274.402344 C 10.195312 275.257812 9.15625 276.207031 8.207031 277.25 C 7.253906 278.289062 6.402344 279.40625 5.648438 280.601562 C 4.898438 281.792969 4.257812 283.042969 3.726562 284.351562 C 3.195312 285.660156 2.789062 287.003906 2.496094 288.386719 C 2.207031 289.765625 2.042969 291.164062 2 292.574219 C 1.960938 293.984375 2.042969 295.386719 2.253906 296.78125 C 2.460938 298.179688 2.792969 299.542969 3.246094 300.882812 C 3.695312 302.21875 4.265625 303.503906 4.945312 304.738281 C 5.628906 305.972656 6.414062 307.140625 7.300781 308.234375 C 8.191406 309.328125 9.171875 310.335938 10.238281 311.253906 C 11.308594 312.175781 12.449219 312.992188 13.664062 313.710938 C 14.878906 314.425781 16.148438 315.027344 17.46875 315.515625 C 18.792969 316.003906 20.144531 316.375 21.535156 316.621094 C 22.921875 316.867188 24.320312 316.988281 25.730469 316.984375 Z M 34.652344 85.96875 C 34.652344 85.191406 34.726562 84.417969 34.878906 83.65625 C 35.03125 82.890625 35.257812 82.148438 35.554688 81.429688 C 35.851562 80.710938 36.214844 80.027344 36.648438 79.378906 C 37.082031 78.734375 37.570312 78.132812 38.121094 77.582031 C 38.671875 77.03125 39.269531 76.539062 39.914062 76.109375 C 40.5625 75.675781 41.246094 75.308594 41.964844 75.011719 C 42.683594 74.714844 43.421875 74.488281 44.183594 74.335938 C 44.949219 74.183594 45.71875 74.109375 46.496094 74.109375 L 328.78125 74.109375 C 329.558594 74.109375 330.328125 74.183594 331.089844 74.335938 C 331.855469 74.488281 332.59375 74.714844 333.3125 75.011719 C 334.03125 75.308594 334.714844 75.675781 335.359375 76.109375 C 336.007812 76.539062 336.605469 77.03125 337.15625 77.582031 C 337.707031 78.132812 338.195312 78.734375 338.628906 79.378906 C 339.058594 80.027344 339.425781 80.710938 339.722656 81.429688 C 340.019531 82.148438 340.246094 82.890625 340.398438 83.65625 C 340.546875 84.417969 340.625 85.191406 340.625 85.96875 L 340.625 269.546875 L 34.652344 269.546875 Z M 25.730469 285.359375 L 349.46875 285.359375 C 349.984375 285.359375 350.5 285.410156 351.007812 285.511719 C 351.515625 285.613281 352.011719 285.761719 352.488281 285.960938 C 352.96875 286.160156 353.421875 286.402344 353.855469 286.691406 C 354.285156 286.980469 354.683594 287.308594 355.050781 287.675781 C 355.417969 288.042969 355.746094 288.441406 356.03125 288.871094 C 356.320312 289.304688 356.5625 289.761719 356.761719 290.238281 C 356.960938 290.71875 357.109375 291.214844 357.210938 291.722656 C 357.3125 292.230469 357.363281 292.746094 357.363281 293.265625 C 357.363281 293.785156 357.3125 294.300781 357.210938 294.808594 C 357.109375 295.316406 356.960938 295.8125 356.761719 296.292969 C 356.5625 296.769531 356.320312 297.226562 356.03125 297.660156 C 355.746094 298.089844 355.417969 298.488281 355.050781 298.855469 C 354.683594 299.222656 354.285156 299.550781 353.855469 299.839844 C 353.421875 300.128906 352.96875 300.371094 352.488281 300.570312 C 352.011719 300.769531 351.515625 300.917969 351.007812 301.019531 C 350.5 301.121094 349.984375 301.171875 349.46875 301.171875 L 25.730469 301.171875 C 25.210938 301.171875 24.699219 301.121094 24.1875 301.019531 C 23.679688 300.917969 23.1875 300.769531 22.707031 300.570312 C 22.230469 300.371094 21.773438 300.128906 21.34375 299.839844 C 20.910156 299.550781 20.511719 299.222656 20.144531 298.855469 C 19.78125 298.488281 19.453125 298.089844 19.164062 297.660156 C 18.875 297.226562 18.632812 296.769531 18.433594 296.292969 C 18.234375 295.8125 18.085938 295.316406 17.984375 294.808594 C 17.882812 294.300781 17.832031 293.785156 17.832031 293.265625 C 17.832031 292.746094 17.882812 292.230469 17.984375 291.722656 C 18.085938 291.214844 18.234375 290.71875 18.433594 290.238281 C 18.632812 289.761719 18.875 289.304688 19.164062 288.871094 C 19.453125 288.441406 19.78125 288.042969 20.144531 287.675781 C 20.511719 287.308594 20.910156 286.980469 21.34375 286.691406 C 21.773438 286.402344 22.230469 286.160156 22.707031 285.960938 C 23.1875 285.761719 23.679688 285.613281 24.1875 285.511719 C 24.699219 285.410156 25.210938 285.359375 25.730469 285.359375 Z M 25.730469 285.359375 " clip-rule="nonzero"/></clipPath><linearGradient x1="-0.0415757" gradientTransform="matrix(1.974014, 0, 0, 1.9767, 2.041377, 58.295439)" y1="65.440002" x2="188.001998" gradientUnits="userSpaceOnUse" y2="65.440002" id="002f9cb40a"><stop stop-opacity="1" stop-color="rgb(61.199951%, 19.198608%, 100%)" offset="0"/><stop stop-opacity="1" stop-color="rgb(60.98938%, 19.380188%, 99.935913%)" offset="0.00390625"/><stop stop-opacity="1" stop-color="rgb(60.778809%, 19.563293%, 99.871826%)" offset="0.0078125"/><stop stop-opacity="1" stop-color="rgb(60.562134%, 19.750977%, 99.806213%)" offset="0.0117188"/><stop stop-opacity="1" stop-color="rgb(60.346985%, 19.93866%, 99.742126%)" offset="0.015625"/><stop stop-opacity="1" stop-color="rgb(60.13031%, 20.124817%, 99.676514%)" offset="0.0195312"/><stop stop-opacity="1" stop-color="rgb(59.915161%, 20.3125%, 99.610901%)" offset="0.0234375"/><stop stop-opacity="1" stop-color="rgb(59.698486%, 20.500183%, 99.545288%)" offset="0.0273438"/><stop stop-opacity="1" stop-color="rgb(59.483337%, 20.687866%, 99.479675%)" offset="0.03125"/><stop stop-opacity="1" stop-color="rgb(59.266663%, 20.875549%, 99.414062%)" offset="0.0351562"/><stop stop-opacity="1" stop-color="rgb(59.049988%, 21.063232%, 99.34845%)" offset="0.0390625"/><stop stop-opacity="1" stop-color="rgb(58.833313%, 21.24939%, 99.282837%)" offset="0.0429688"/><stop stop-opacity="1" stop-color="rgb(58.618164%, 21.437073%, 99.21875%)" offset="0.046875"/><stop stop-opacity="1" stop-color="rgb(58.401489%, 21.624756%, 99.153137%)" offset="0.0507812"/><stop stop-opacity="1" stop-color="rgb(58.18634%, 21.812439%, 99.087524%)" offset="0.0546875"/><stop stop-opacity="1" stop-color="rgb(57.969666%, 21.998596%, 99.021912%)" offset="0.0585938"/><stop stop-opacity="1" stop-color="rgb(57.754517%, 22.186279%, 98.956299%)" offset="0.0625"/><stop stop-opacity="1" stop-color="rgb(57.537842%, 22.373962%, 98.890686%)" offset="0.0664062"/><stop stop-opacity="1" stop-color="rgb(57.321167%, 22.561646%, 98.826599%)" offset="0.0703125"/><stop stop-opacity="1" stop-color="rgb(57.104492%, 22.749329%, 98.760986%)" offset="0.0742188"/><stop stop-opacity="1" stop-color="rgb(56.889343%, 22.937012%, 98.695374%)" offset="0.078125"/><stop stop-opacity="1" stop-color="rgb(56.672668%, 23.123169%, 98.629761%)" offset="0.0820312"/><stop stop-opacity="1" stop-color="rgb(56.45752%, 23.310852%, 98.564148%)" offset="0.0859375"/><stop stop-opacity="1" stop-color="rgb(56.240845%, 23.498535%, 98.498535%)" offset="0.0898438"/><stop stop-opacity="1" stop-color="rgb(56.025696%, 23.686218%, 98.434448%)" offset="0.09375"/><stop stop-opacity="1" stop-color="rgb(55.809021%, 23.872375%, 98.368835%)" offset="0.0976562"/><stop stop-opacity="1" stop-color="rgb(55.593872%, 24.060059%, 98.303223%)" offset="0.101562"/><stop stop-opacity="1" stop-color="rgb(55.377197%, 24.247742%, 98.23761%)" offset="0.105469"/><stop stop-opacity="1" stop-color="rgb(55.160522%, 24.435425%, 98.171997%)" offset="0.109375"/><stop stop-opacity="1" stop-color="rgb(54.943848%, 24.623108%, 98.106384%)" offset="0.113281"/><stop stop-opacity="1" stop-color="rgb(54.728699%, 24.810791%, 98.040771%)" offset="0.117188"/><stop stop-opacity="1" stop-color="rgb(54.512024%, 24.996948%, 97.975159%)" offset="0.121094"/><stop stop-opacity="1" stop-color="rgb(54.296875%, 25.184631%, 97.911072%)" offset="0.125"/><stop stop-opacity="1" stop-color="rgb(54.0802%, 25.372314%, 97.845459%)" offset="0.128906"/><stop stop-opacity="1" stop-color="rgb(53.865051%, 25.559998%, 97.779846%)" offset="0.132813"/><stop stop-opacity="1" stop-color="rgb(53.648376%, 25.746155%, 97.714233%)" offset="0.136719"/><stop stop-opacity="1" stop-color="rgb(53.431702%, 25.933838%, 97.648621%)" offset="0.140625"/><stop stop-opacity="1" stop-color="rgb(53.215027%, 26.121521%, 97.583008%)" offset="0.144531"/><stop stop-opacity="1" stop-color="rgb(52.999878%, 26.309204%, 97.518921%)" offset="0.148438"/><stop stop-opacity="1" stop-color="rgb(52.783203%, 26.496887%, 97.453308%)" offset="0.152344"/><stop stop-opacity="1" stop-color="rgb(52.568054%, 26.68457%, 97.387695%)" offset="0.15625"/><stop stop-opacity="1" stop-color="rgb(52.351379%, 26.870728%, 97.322083%)" offset="0.160156"/><stop stop-opacity="1" stop-color="rgb(52.13623%, 27.058411%, 97.25647%)" offset="0.164063"/><stop stop-opacity="1" stop-color="rgb(51.919556%, 27.246094%, 97.190857%)" offset="0.167969"/><stop stop-opacity="1" stop-color="rgb(51.702881%, 27.433777%, 97.125244%)" offset="0.171875"/><stop stop-opacity="1" stop-color="rgb(51.486206%, 27.619934%, 97.059631%)" offset="0.175781"/><stop stop-opacity="1" stop-color="rgb(51.271057%, 27.807617%, 96.995544%)" offset="0.179688"/><stop stop-opacity="1" stop-color="rgb(51.054382%, 27.9953%, 96.929932%)" offset="0.183594"/><stop stop-opacity="1" stop-color="rgb(50.839233%, 28.182983%, 96.864319%)" offset="0.1875"/><stop stop-opacity="1" stop-color="rgb(50.622559%, 28.370667%, 96.798706%)" offset="0.191406"/><stop stop-opacity="1" stop-color="rgb(50.40741%, 28.55835%, 96.733093%)" offset="0.195313"/><stop stop-opacity="1" stop-color="rgb(50.190735%, 28.744507%, 96.66748%)" offset="0.199219"/><stop stop-opacity="1" stop-color="rgb(49.97406%, 28.93219%, 96.603394%)" offset="0.203125"/><stop stop-opacity="1" stop-color="rgb(49.757385%, 29.119873%, 96.537781%)" offset="0.207031"/><stop stop-opacity="1" stop-color="rgb(49.542236%, 29.307556%, 96.472168%)" offset="0.210938"/><stop stop-opacity="1" stop-color="rgb(49.325562%, 29.493713%, 96.406555%)" offset="0.214844"/><stop stop-opacity="1" stop-color="rgb(49.110413%, 29.681396%, 96.340942%)" offset="0.21875"/><stop stop-opacity="1" stop-color="rgb(48.893738%, 29.86908%, 96.27533%)" offset="0.222656"/><stop stop-opacity="1" stop-color="rgb(48.678589%, 30.056763%, 96.211243%)" offset="0.226563"/><stop stop-opacity="1" stop-color="rgb(48.461914%, 30.244446%, 96.14563%)" offset="0.230469"/><stop stop-opacity="1" stop-color="rgb(48.246765%, 30.432129%, 96.080017%)" offset="0.234375"/><stop stop-opacity="1" stop-color="rgb(48.03009%, 30.618286%, 96.014404%)" offset="0.238281"/><stop stop-opacity="1" stop-color="rgb(47.813416%, 30.805969%, 95.948792%)" offset="0.242188"/><stop stop-opacity="1" stop-color="rgb(47.596741%, 30.993652%, 95.883179%)" offset="0.246094"/><stop stop-opacity="1" stop-color="rgb(47.381592%, 31.181335%, 95.817566%)" offset="0.25"/><stop stop-opacity="1" stop-color="rgb(47.164917%, 31.369019%, 95.751953%)" offset="0.253906"/><stop stop-opacity="1" stop-color="rgb(46.949768%, 31.556702%, 95.687866%)" offset="0.257812"/><stop stop-opacity="1" stop-color="rgb(46.733093%, 31.742859%, 95.622253%)" offset="0.261719"/><stop stop-opacity="1" stop-color="rgb(46.517944%, 31.930542%, 95.556641%)" offset="0.265625"/><stop stop-opacity="1" stop-color="rgb(46.30127%, 32.118225%, 95.491028%)" offset="0.269531"/><stop stop-opacity="1" stop-color="rgb(46.084595%, 32.305908%, 95.425415%)" offset="0.273438"/><stop stop-opacity="1" stop-color="rgb(45.86792%, 32.492065%, 95.359802%)" offset="0.277344"/><stop stop-opacity="1" stop-color="rgb(45.652771%, 32.679749%, 95.295715%)" offset="0.28125"/><stop stop-opacity="1" stop-color="rgb(45.436096%, 32.867432%, 95.230103%)" offset="0.285156"/><stop stop-opacity="1" stop-color="rgb(45.220947%, 33.055115%, 95.16449%)" offset="0.289063"/><stop stop-opacity="1" stop-color="rgb(45.004272%, 33.242798%, 95.098877%)" offset="0.292969"/><stop stop-opacity="1" stop-color="rgb(44.789124%, 33.430481%, 95.033264%)" offset="0.296875"/><stop stop-opacity="1" stop-color="rgb(44.572449%, 33.616638%, 94.967651%)" offset="0.300781"/><stop stop-opacity="1" stop-color="rgb(44.355774%, 33.804321%, 94.903564%)" offset="0.304688"/><stop stop-opacity="1" stop-color="rgb(44.139099%, 33.992004%, 94.837952%)" offset="0.308594"/><stop stop-opacity="1" stop-color="rgb(43.92395%, 34.179688%, 94.772339%)" offset="0.3125"/><stop stop-opacity="1" stop-color="rgb(43.707275%, 34.365845%, 94.706726%)" offset="0.316406"/><stop stop-opacity="1" stop-color="rgb(43.492126%, 34.553528%, 94.641113%)" offset="0.320312"/><stop stop-opacity="1" stop-color="rgb(43.275452%, 34.741211%, 94.5755%)" offset="0.324219"/><stop stop-opacity="1" stop-color="rgb(43.060303%, 34.928894%, 94.509888%)" offset="0.328125"/><stop stop-opacity="1" stop-color="rgb(42.843628%, 35.116577%, 94.444275%)" offset="0.332031"/><stop stop-opacity="1" stop-color="rgb(42.628479%, 35.30426%, 94.380188%)" offset="0.335938"/><stop stop-opacity="1" stop-color="rgb(42.411804%, 35.490417%, 94.314575%)" offset="0.339844"/><stop stop-opacity="1" stop-color="rgb(42.195129%, 35.678101%, 94.248962%)" offset="0.34375"/><stop stop-opacity="1" stop-color="rgb(41.978455%, 35.865784%, 94.18335%)" offset="0.347656"/><stop stop-opacity="1" stop-color="rgb(41.763306%, 36.053467%, 94.117737%)" offset="0.351563"/><stop stop-opacity="1" stop-color="rgb(41.546631%, 36.239624%, 94.052124%)" offset="0.355469"/><stop stop-opacity="1" stop-color="rgb(41.331482%, 36.427307%, 93.988037%)" offset="0.359375"/><stop stop-opacity="1" stop-color="rgb(41.114807%, 36.61499%, 93.922424%)" offset="0.363281"/><stop stop-opacity="1" stop-color="rgb(40.899658%, 36.802673%, 93.856812%)" offset="0.367188"/><stop stop-opacity="1" stop-color="rgb(40.682983%, 36.990356%, 93.791199%)" offset="0.371094"/><stop stop-opacity="1" stop-color="rgb(40.466309%, 37.17804%, 93.725586%)" offset="0.375"/><stop stop-opacity="1" stop-color="rgb(40.249634%, 37.364197%, 93.659973%)" offset="0.378906"/><stop stop-opacity="1" stop-color="rgb(40.034485%, 37.55188%, 93.595886%)" offset="0.382813"/><stop stop-opacity="1" stop-color="rgb(39.81781%, 37.739563%, 93.530273%)" offset="0.386719"/><stop stop-opacity="1" stop-color="rgb(39.602661%, 37.927246%, 93.464661%)" offset="0.390625"/><stop stop-opacity="1" stop-color="rgb(39.385986%, 38.113403%, 93.399048%)" offset="0.394531"/><stop stop-opacity="1" stop-color="rgb(39.170837%, 38.301086%, 93.333435%)" offset="0.398438"/><stop stop-opacity="1" stop-color="rgb(38.954163%, 38.48877%, 93.267822%)" offset="0.402344"/><stop stop-opacity="1" stop-color="rgb(38.737488%, 38.676453%, 93.202209%)" offset="0.40625"/><stop stop-opacity="1" stop-color="rgb(38.520813%, 38.864136%, 93.136597%)" offset="0.410156"/><stop stop-opacity="1" stop-color="rgb(38.305664%, 39.051819%, 93.07251%)" offset="0.414063"/><stop stop-opacity="1" stop-color="rgb(38.088989%, 39.237976%, 93.006897%)" offset="0.417969"/><stop stop-opacity="1" stop-color="rgb(37.87384%, 39.425659%, 92.941284%)" offset="0.421875"/><stop stop-opacity="1" stop-color="rgb(37.657166%, 39.613342%, 92.875671%)" offset="0.425781"/><stop stop-opacity="1" stop-color="rgb(37.442017%, 39.801025%, 92.810059%)" offset="0.429688"/><stop stop-opacity="1" stop-color="rgb(37.225342%, 39.988708%, 92.744446%)" offset="0.433594"/><stop stop-opacity="1" stop-color="rgb(37.010193%, 40.176392%, 92.680359%)" offset="0.4375"/><stop stop-opacity="1" stop-color="rgb(36.793518%, 40.362549%, 92.614746%)" offset="0.441406"/><stop stop-opacity="1" stop-color="rgb(36.576843%, 40.550232%, 92.549133%)" offset="0.445312"/><stop stop-opacity="1" stop-color="rgb(36.360168%, 40.737915%, 92.483521%)" offset="0.449219"/><stop stop-opacity="1" stop-color="rgb(36.14502%, 40.925598%, 92.417908%)" offset="0.453125"/><stop stop-opacity="1" stop-color="rgb(35.928345%, 41.111755%, 92.352295%)" offset="0.457031"/><stop stop-opacity="1" stop-color="rgb(35.713196%, 41.299438%, 92.288208%)" offset="0.460938"/><stop stop-opacity="1" stop-color="rgb(35.496521%, 41.487122%, 92.222595%)" offset="0.464844"/><stop stop-opacity="1" stop-color="rgb(35.281372%, 41.674805%, 92.156982%)" offset="0.46875"/><stop stop-opacity="1" stop-color="rgb(35.064697%, 41.862488%, 92.09137%)" offset="0.472656"/><stop stop-opacity="1" stop-color="rgb(34.848022%, 42.050171%, 92.025757%)" offset="0.476563"/><stop stop-opacity="1" stop-color="rgb(34.631348%, 42.236328%, 91.960144%)" offset="0.480469"/><stop stop-opacity="1" stop-color="rgb(34.416199%, 42.424011%, 91.894531%)" offset="0.484375"/><stop stop-opacity="1" stop-color="rgb(34.202576%, 42.608643%, 91.830444%)" offset="0.488281"/><stop stop-opacity="1" stop-color="rgb(33.990479%, 42.7948%, 91.766357%)" offset="0.492188"/><stop stop-opacity="1" stop-color="rgb(33.786011%, 42.974854%, 91.705322%)" offset="0.496094"/><stop stop-opacity="1" stop-color="rgb(33.583069%, 43.156433%, 91.645813%)" offset="0.5"/><stop stop-opacity="1" stop-color="rgb(33.378601%, 43.336487%, 91.584778%)" offset="0.503906"/><stop stop-opacity="1" stop-color="rgb(33.175659%, 43.518066%, 91.525269%)" offset="0.507813"/><stop stop-opacity="1" stop-color="rgb(32.971191%, 43.69812%, 91.464233%)" offset="0.511719"/><stop stop-opacity="1" stop-color="rgb(32.76825%, 43.8797%, 91.403198%)" offset="0.515625"/><stop stop-opacity="1" stop-color="rgb(32.563782%, 44.059753%, 91.342163%)" offset="0.519531"/><stop stop-opacity="1" stop-color="rgb(32.36084%, 44.241333%, 91.282654%)" offset="0.523438"/><stop stop-opacity="1" stop-color="rgb(32.156372%, 44.421387%, 91.221619%)" offset="0.527344"/><stop stop-opacity="1" stop-color="rgb(31.95343%, 44.602966%, 91.162109%)" offset="0.53125"/><stop stop-opacity="1" stop-color="rgb(31.748962%, 44.78302%, 91.101074%)" offset="0.535156"/><stop stop-opacity="1" stop-color="rgb(31.546021%, 44.9646%, 91.040039%)" offset="0.539062"/><stop stop-opacity="1" stop-color="rgb(31.341553%, 45.144653%, 90.979004%)" offset="0.542969"/><stop stop-opacity="1" stop-color="rgb(31.137085%, 45.326233%, 90.919495%)" offset="0.546875"/><stop stop-opacity="1" stop-color="rgb(30.932617%, 45.506287%, 90.858459%)" offset="0.550781"/><stop stop-opacity="1" stop-color="rgb(30.729675%, 45.687866%, 90.79895%)" offset="0.554688"/><stop stop-opacity="1" stop-color="rgb(30.525208%, 45.86792%, 90.737915%)" offset="0.558594"/><stop stop-opacity="1" stop-color="rgb(30.322266%, 46.0495%, 90.67688%)" offset="0.5625"/><stop stop-opacity="1" stop-color="rgb(30.117798%, 46.229553%, 90.615845%)" offset="0.566406"/><stop stop-opacity="1" stop-color="rgb(29.914856%, 46.411133%, 90.556335%)" offset="0.570313"/><stop stop-opacity="1" stop-color="rgb(29.710388%, 46.591187%, 90.4953%)" offset="0.574219"/><stop stop-opacity="1" stop-color="rgb(29.507446%, 46.772766%, 90.435791%)" offset="0.578125"/><stop stop-opacity="1" stop-color="rgb(29.302979%, 46.95282%, 90.374756%)" offset="0.582031"/><stop stop-opacity="1" stop-color="rgb(29.100037%, 47.134399%, 90.313721%)" offset="0.585938"/><stop stop-opacity="1" stop-color="rgb(28.895569%, 47.314453%, 90.252686%)" offset="0.589844"/><stop stop-opacity="1" stop-color="rgb(28.692627%, 47.496033%, 90.193176%)" offset="0.59375"/><stop stop-opacity="1" stop-color="rgb(28.488159%, 47.676086%, 90.132141%)" offset="0.597656"/><stop stop-opacity="1" stop-color="rgb(28.285217%, 47.857666%, 90.072632%)" offset="0.601563"/><stop stop-opacity="1" stop-color="rgb(28.08075%, 48.03772%, 90.011597%)" offset="0.605469"/><stop stop-opacity="1" stop-color="rgb(27.877808%, 48.219299%, 89.952087%)" offset="0.609375"/><stop stop-opacity="1" stop-color="rgb(27.67334%, 48.399353%, 89.891052%)" offset="0.613281"/><stop stop-opacity="1" stop-color="rgb(27.468872%, 48.580933%, 89.830017%)" offset="0.617188"/><stop stop-opacity="1" stop-color="rgb(27.264404%, 48.760986%, 89.768982%)" offset="0.621094"/><stop stop-opacity="1" stop-color="rgb(27.061462%, 48.942566%, 89.709473%)" offset="0.625"/><stop stop-opacity="1" stop-color="rgb(26.856995%, 49.12262%, 89.648438%)" offset="0.628906"/><stop stop-opacity="1" stop-color="rgb(26.654053%, 49.304199%, 89.588928%)" offset="0.632813"/><stop stop-opacity="1" stop-color="rgb(26.449585%, 49.484253%, 89.527893%)" offset="0.636719"/><stop stop-opacity="1" stop-color="rgb(26.246643%, 49.665833%, 89.466858%)" offset="0.640625"/><stop stop-opacity="1" stop-color="rgb(26.042175%, 49.845886%, 89.405823%)" offset="0.644531"/><stop stop-opacity="1" stop-color="rgb(25.839233%, 50.027466%, 89.346313%)" offset="0.648438"/><stop stop-opacity="1" stop-color="rgb(25.634766%, 50.20752%, 89.285278%)" offset="0.652344"/><stop stop-opacity="1" stop-color="rgb(25.431824%, 50.389099%, 89.225769%)" offset="0.65625"/><stop stop-opacity="1" stop-color="rgb(25.227356%, 50.569153%, 89.164734%)" offset="0.660156"/><stop stop-opacity="1" stop-color="rgb(25.024414%, 50.750732%, 89.103699%)" offset="0.664063"/><stop stop-opacity="1" stop-color="rgb(24.819946%, 50.930786%, 89.042664%)" offset="0.667969"/><stop stop-opacity="1" stop-color="rgb(24.617004%, 51.112366%, 88.983154%)" offset="0.671875"/><stop stop-opacity="1" stop-color="rgb(24.412537%, 51.292419%, 88.922119%)" offset="0.675781"/><stop stop-opacity="1" stop-color="rgb(24.209595%, 51.473999%, 88.86261%)" offset="0.679688"/><stop stop-opacity="1" stop-color="rgb(24.005127%, 51.654053%, 88.801575%)" offset="0.683594"/><stop stop-opacity="1" stop-color="rgb(23.802185%, 51.835632%, 88.74054%)" offset="0.6875"/><stop stop-opacity="1" stop-color="rgb(23.597717%, 52.015686%, 88.679504%)" offset="0.691406"/><stop stop-opacity="1" stop-color="rgb(23.39325%, 52.197266%, 88.619995%)" offset="0.695313"/><stop stop-opacity="1" stop-color="rgb(23.188782%, 52.377319%, 88.55896%)" offset="0.699219"/><stop stop-opacity="1" stop-color="rgb(22.98584%, 52.558899%, 88.499451%)" offset="0.703125"/><stop stop-opacity="1" stop-color="rgb(22.781372%, 52.738953%, 88.438416%)" offset="0.707031"/><stop stop-opacity="1" stop-color="rgb(22.57843%, 52.920532%, 88.37738%)" offset="0.710938"/><stop stop-opacity="1" stop-color="rgb(22.373962%, 53.100586%, 88.316345%)" offset="0.714844"/><stop stop-opacity="1" stop-color="rgb(22.171021%, 53.282166%, 88.256836%)" offset="0.71875"/><stop stop-opacity="1" stop-color="rgb(21.966553%, 53.462219%, 88.195801%)" offset="0.722656"/><stop stop-opacity="1" stop-color="rgb(21.763611%, 53.643799%, 88.136292%)" offset="0.726563"/><stop stop-opacity="1" stop-color="rgb(21.559143%, 53.823853%, 88.075256%)" offset="0.730469"/><stop stop-opacity="1" stop-color="rgb(21.356201%, 54.005432%, 88.014221%)" offset="0.734375"/><stop stop-opacity="1" stop-color="rgb(21.151733%, 54.185486%, 87.953186%)" offset="0.738281"/><stop stop-opacity="1" stop-color="rgb(20.948792%, 54.367065%, 87.893677%)" offset="0.742188"/><stop stop-opacity="1" stop-color="rgb(20.744324%, 54.547119%, 87.832642%)" offset="0.746094"/><stop stop-opacity="1" stop-color="rgb(20.541382%, 54.728699%, 87.773132%)" offset="0.75"/><stop stop-opacity="1" stop-color="rgb(20.336914%, 54.908752%, 87.712097%)" offset="0.753906"/><stop stop-opacity="1" stop-color="rgb(20.133972%, 55.090332%, 87.651062%)" offset="0.757813"/><stop stop-opacity="1" stop-color="rgb(19.929504%, 55.270386%, 87.590027%)" offset="0.761719"/><stop stop-opacity="1" stop-color="rgb(19.725037%, 55.451965%, 87.530518%)" offset="0.765625"/><stop stop-opacity="1" stop-color="rgb(19.520569%, 55.632019%, 87.469482%)" offset="0.769531"/><stop stop-opacity="1" stop-color="rgb(19.317627%, 55.813599%, 87.409973%)" offset="0.773438"/><stop stop-opacity="1" stop-color="rgb(19.113159%, 55.993652%, 87.348938%)" offset="0.777344"/><stop stop-opacity="1" stop-color="rgb(18.910217%, 56.175232%, 87.287903%)" offset="0.78125"/><stop stop-opacity="1" stop-color="rgb(18.70575%, 56.355286%, 87.226868%)" offset="0.785156"/><stop stop-opacity="1" stop-color="rgb(18.502808%, 56.536865%, 87.167358%)" offset="0.789062"/><stop stop-opacity="1" stop-color="rgb(18.29834%, 56.716919%, 87.106323%)" offset="0.792969"/><stop stop-opacity="1" stop-color="rgb(18.095398%, 56.898499%, 87.046814%)" offset="0.796875"/><stop stop-opacity="1" stop-color="rgb(17.89093%, 57.078552%, 86.985779%)" offset="0.800781"/><stop stop-opacity="1" stop-color="rgb(17.687988%, 57.260132%, 86.924744%)" offset="0.804688"/><stop stop-opacity="1" stop-color="rgb(17.483521%, 57.440186%, 86.863708%)" offset="0.808594"/><stop stop-opacity="1" stop-color="rgb(17.280579%, 57.621765%, 86.804199%)" offset="0.8125"/><stop stop-opacity="1" stop-color="rgb(17.076111%, 57.801819%, 86.743164%)" offset="0.816406"/><stop stop-opacity="1" stop-color="rgb(16.873169%, 57.983398%, 86.683655%)" offset="0.820313"/><stop stop-opacity="1" stop-color="rgb(16.668701%, 58.163452%, 86.62262%)" offset="0.824219"/><stop stop-opacity="1" stop-color="rgb(16.465759%, 58.345032%, 86.561584%)" offset="0.828125"/><stop stop-opacity="1" stop-color="rgb(16.261292%, 58.525085%, 86.500549%)" offset="0.832031"/><stop stop-opacity="1" stop-color="rgb(16.05835%, 58.706665%, 86.44104%)" offset="0.835938"/><stop stop-opacity="1" stop-color="rgb(15.853882%, 58.886719%, 86.380005%)" offset="0.839844"/><stop stop-opacity="1" stop-color="rgb(15.649414%, 59.068298%, 86.320496%)" offset="0.84375"/><stop stop-opacity="1" stop-color="rgb(15.444946%, 59.248352%, 86.25946%)" offset="0.847656"/><stop stop-opacity="1" stop-color="rgb(15.242004%, 59.429932%, 86.198425%)" offset="0.851563"/><stop stop-opacity="1" stop-color="rgb(15.037537%, 59.609985%, 86.13739%)" offset="0.855469"/><stop stop-opacity="1" stop-color="rgb(14.834595%, 59.791565%, 86.077881%)" offset="0.859375"/><stop stop-opacity="1" stop-color="rgb(14.630127%, 59.971619%, 86.016846%)" offset="0.863281"/><stop stop-opacity="1" stop-color="rgb(14.427185%, 60.153198%, 85.957336%)" offset="0.867188"/><stop stop-opacity="1" stop-color="rgb(14.222717%, 60.333252%, 85.896301%)" offset="0.871094"/><stop stop-opacity="1" stop-color="rgb(14.019775%, 60.514832%, 85.835266%)" offset="0.875"/><stop stop-opacity="1" stop-color="rgb(13.815308%, 60.694885%, 85.774231%)" offset="0.878906"/><stop stop-opacity="1" stop-color="rgb(13.612366%, 60.874939%, 85.714722%)" offset="0.882813"/><stop stop-opacity="1" stop-color="rgb(13.407898%, 61.054993%, 85.653687%)" offset="0.886719"/><stop stop-opacity="1" stop-color="rgb(13.204956%, 61.236572%, 85.594177%)" offset="0.890625"/><stop stop-opacity="1" stop-color="rgb(13.000488%, 61.416626%, 85.533142%)" offset="0.894531"/><stop stop-opacity="1" stop-color="rgb(12.797546%, 61.598206%, 85.472107%)" offset="0.898438"/><stop stop-opacity="1" stop-color="rgb(12.593079%, 61.778259%, 85.411072%)" offset="0.902344"/><stop stop-opacity="1" stop-color="rgb(12.390137%, 61.959839%, 85.351562%)" offset="0.90625"/><stop stop-opacity="1" stop-color="rgb(12.185669%, 62.139893%, 85.290527%)" offset="0.910156"/><stop stop-opacity="1" stop-color="rgb(11.981201%, 62.321472%, 85.231018%)" offset="0.914063"/><stop stop-opacity="1" stop-color="rgb(11.776733%, 62.501526%, 85.169983%)" offset="0.917969"/><stop stop-opacity="1" stop-color="rgb(11.573792%, 62.683105%, 85.108948%)" offset="0.921875"/><stop stop-opacity="1" stop-color="rgb(11.369324%, 62.863159%, 85.047913%)" offset="0.925781"/><stop stop-opacity="1" stop-color="rgb(11.166382%, 63.044739%, 84.988403%)" offset="0.929688"/><stop stop-opacity="1" stop-color="rgb(10.961914%, 63.224792%, 84.927368%)" offset="0.933594"/><stop stop-opacity="1" stop-color="rgb(10.758972%, 63.406372%, 84.867859%)" offset="0.9375"/><stop stop-opacity="1" stop-color="rgb(10.554504%, 63.586426%, 84.806824%)" offset="0.941406"/><stop stop-opacity="1" stop-color="rgb(10.351562%, 63.768005%, 84.745789%)" offset="0.945313"/><stop stop-opacity="1" stop-color="rgb(10.147095%, 63.948059%, 84.684753%)" offset="0.949219"/><stop stop-opacity="1" stop-color="rgb(9.944153%, 64.129639%, 84.625244%)" offset="0.953125"/><stop stop-opacity="1" stop-color="rgb(9.739685%, 64.309692%, 84.564209%)" offset="0.957031"/><stop stop-opacity="1" stop-color="rgb(9.536743%, 64.491272%, 84.5047%)" offset="0.960938"/><stop stop-opacity="1" stop-color="rgb(9.332275%, 64.671326%, 84.443665%)" offset="0.964844"/><stop stop-opacity="1" stop-color="rgb(9.129333%, 64.852905%, 84.382629%)" offset="0.96875"/><stop stop-opacity="1" stop-color="rgb(8.924866%, 65.032959%, 84.321594%)" offset="0.972656"/><stop stop-opacity="1" stop-color="rgb(8.721924%, 65.214539%, 84.262085%)" offset="0.976563"/><stop stop-opacity="1" stop-color="rgb(8.517456%, 65.394592%, 84.20105%)" offset="0.980469"/><stop stop-opacity="1" stop-color="rgb(8.314514%, 65.576172%, 84.141541%)" offset="0.984375"/><stop stop-opacity="1" stop-color="rgb(8.110046%, 65.756226%, 84.080505%)" offset="0.988281"/><stop stop-opacity="1" stop-color="rgb(7.905579%, 65.937805%, 84.01947%)" offset="0.992188"/><stop stop-opacity="1" stop-color="rgb(7.702637%, 66.117859%, 83.958435%)" offset="0.996094"/><stop stop-opacity="1" stop-color="rgb(7.499695%, 66.299438%, 83.898926%)" offset="1"/></linearGradient></defs><g clip-path="url(#9c6ff81fb1)"><g clip-path="url(#b1b1d6ce6a)"><path fill="url(#002f9cb40a)" d="M 1.960938 58.296875 L 1.960938 316.988281 L 373.160156 316.988281 L 373.160156 58.296875 Z M 1.960938 58.296875 " fill-rule="nonzero"/></g></g><g fill="#576dea" fill-opacity="1"><g transform="translate(42.307227, 242.999984)"><g><path d="M 108.796875 0 L 32 0 C 27.300781 0 23.003906 -1.144531 19.109375 -3.4375 C 15.222656 -5.726562 12.132812 -8.820312 9.84375 -12.71875 C 7.550781 -16.613281 6.40625 -20.90625 6.40625 -25.59375 L 6.40625 -51.203125 L 32 -51.203125 L 32 -25.59375 L 108.796875 -25.59375 L 108.796875 -102.40625 L 57.59375 -102.40625 L 57.59375 -128 L 134.40625 -128 L 134.40625 -25.59375 C 134.40625 -21.007812 133.253906 -16.769531 130.953125 -12.875 C 128.660156 -8.988281 125.59375 -5.867188 121.75 -3.515625 C 117.914062 -1.171875 113.597656 0 108.796875 0 Z M 108.796875 0 "/></g></g></g><g fill="#576dea" fill-opacity="1"><g transform="translate(183.103773, 242.999984)"><g><path d="M 108.796875 -76.796875 L 108.796875 -128 L 134.40625 -128 L 134.40625 -25.59375 C 134.40625 -20.90625 133.253906 -16.613281 130.953125 -12.71875 C 128.660156 -8.820312 125.566406 -5.726562 121.671875 -3.4375 C 117.785156 -1.144531 113.492188 0 108.796875 0 L 6.40625 0 L 6.40625 -25.59375 L 108.796875 -25.59375 L 108.796875 -51.203125 L 32 -51.203125 C 27.300781 -51.203125 23.003906 -52.347656 19.109375 -54.640625 C 15.222656 -56.929688 12.132812 -60.023438 9.84375 -63.921875 C 7.550781 -67.816406 6.40625 -72.109375 6.40625 -76.796875 L 6.40625 -128 L 32 -128 L 32 -76.796875 Z M 108.796875 -76.796875 "/></g></g></g></svg>